<svg width="22" height="22" viewBox="0 0 22 22" fill="none" xmlns="http://www.w3.org/2000/svg">
<g clip-path="url(#clip0_3_273)">
<path fill-rule="evenodd" clip-rule="evenodd" d="M11.6663 0.434229L14.4897 6.43101C14.5935 6.65753 14.8034 6.81736 15.0493 6.85713L21.3627 7.81876C21.6482 7.87413 21.88 8.08204 21.9661 8.35983C22.0522 8.63763 21.9786 8.94028 21.7746 9.14748L17.2061 13.8153C17.0297 13.9983 16.9505 14.2541 16.9924 14.5048L18.0709 21.0959C18.1297 21.3792 18.0206 21.6712 17.7905 21.8465C17.5603 22.0218 17.25 22.0492 16.9926 21.9171L11.3457 18.8052C11.1305 18.6859 10.8692 18.6859 10.654 18.8052L5.00708 21.9171C4.74973 22.0492 4.43938 22.0218 4.20921 21.8465C3.97905 21.6712 3.86998 21.3792 3.92881 21.0959L5.00728 14.5048C5.04924 14.2541 4.96996 13.9983 4.79355 13.8153L0.225081 9.14748C0.021062 8.94028 -0.05252 8.63763 0.0335878 8.35985C0.119696 8.08206 0.351539 7.87415 0.636948 7.81878L6.95042 6.85714C7.19631 6.81736 7.40618 6.65753 7.50996 6.43101L10.3334 0.434229C10.4501 0.170271 10.7114 0 10.9998 0C11.2883 0 11.5496 0.170271 11.6663 0.434229Z" fill="black" fill-opacity="0.49"/>
<path fill-rule="evenodd" clip-rule="evenodd" d="M6.50466 14.7499C6.6241 14.0223 6.39124 13.2812 5.87717 12.7528L2.30261 9.10039L7.1792 8.3578C7.92444 8.24213 8.56311 7.76266 8.88239 7.07917L11.0001 2.58113L13.117 7.07787C13.4363 7.76193 14.0752 8.24188 14.8209 8.35777L19.6975 9.10036L16.1222 12.7535C15.6085 13.2822 15.3759 14.0233 15.4955 14.7509L16.3241 19.8157L12.078 17.4758C11.4073 17.1053 10.5934 17.1052 9.92253 17.4754L5.67603 19.8157L6.50466 14.7499Z" fill="#F5F5F5"/>
</g>
<defs>
<clipPath id="clip0_3_273">
<rect width="22" height="22" fill="white"/>
</clipPath>
</defs>
</svg>
