<svg width="22" height="22" viewBox="0 0 22 22" fill="none" xmlns="http://www.w3.org/2000/svg">
<path d="M2.70174 2.11918L2.56625 1.83332H2.24992H0.583252V0.666656H3.3043L4.19786 2.54785L4.33346 2.83332H4.6495H20.6666C20.9879 2.83332 21.2499 3.09317 21.2499 3.41666C21.2499 3.52052 21.2232 3.61358 21.1804 3.68859L21.1803 3.68856L21.1765 3.69541L17.3055 10.7229C17.3052 10.7234 17.3049 10.724 17.3046 10.7246C17.0148 11.2398 16.4681 11.5833 15.8458 11.5833H7.77492H7.47904L7.33664 11.8427L6.36853 13.6058C6.30078 13.7264 6.27283 13.8554 6.27283 13.9792C6.27283 14.407 6.61586 14.75 7.04367 14.75H19.0833V15.9167H6.58325C5.66231 15.9167 4.91658 15.1709 4.91658 14.25C4.91658 13.9599 4.99042 13.6892 5.12154 13.4429L6.58242 10.7917L6.70594 10.5675L6.59632 10.3363L2.70174 2.11918ZM4.92742 19.6667C4.92742 18.7424 5.66557 18 6.58325 18C7.50419 18 8.24992 18.7457 8.24992 19.6667C8.24992 20.5876 7.50419 21.3333 6.58325 21.3333C5.66557 21.3333 4.92742 20.5909 4.92742 19.6667ZM15.7608 19.6667C15.7608 18.7424 16.4989 18 17.4166 18C18.3375 18 19.0833 18.7457 19.0833 19.6667C19.0833 20.5876 18.3375 21.3333 17.4166 21.3333C16.4989 21.3333 15.7608 20.5909 15.7608 19.6667Z" fill="#69306D" stroke="#69306D"/>
</svg>
